<svg width="380" height="515" fill="none" xmlns="http://www.w3.org/2000/svg"><path d="M259.34 287.127l-.103.076-.089.091c-6.118 6.307-12.089 12.819-17.995 19.282l-1.216 1.331c-5.496 6.017-10.94 11.977-16.42 17.701-11.775 12.299-23.645 23.436-36.383 31.59-12.719 8.141-26.262 13.282-41.402 13.643-15.144.36-32.035-4.059-51.447-15.287-38.666-22.365-62.527-68.417-74.117-118.13-11.583-49.679-10.82-102.638-.596-138.396 3.39-11.855 9.167-20.81 16.79-27.373 7.631-6.57 17.19-10.81 28.24-13.108 22.146-4.606 50.087-1.366 79.812 6.366 59.41 15.453 125.215 48.647 164.355 71.286 19.405 11.224 29.77 23.293 33.65 35.662 3.876 12.353 1.373 25.297-5.591 38.481-13.981 26.466-45.621 53.294-77.488 76.785z" stroke="#ECECEC" stroke-width="3"/><path d="M368.504 273.218c4.522-4.218 12.03-2.677 13.593 2.735 4.337 15.739 6.837 32.203-.722 41.813-4.012 5.179-9.266 10.103-8.426 15.655.601 2.741 2.349 5.029 2.978 7.396 1.05 4.198-.61 9.047-4.349 12.629-1.463 1.413-2.996 2.563-3.67 3.845-1.375 2.94 4.887 7.188 5.184 10.575.273 9.625-11.889 12.282-14.7 17.331-2.492 4.343-1.345 3.89-3.254 9.71-1.356 4.203-6.274 7.288-11.446 7.622-5.172.334-10.53-1.819-12.366-5.634-2.361-4.716-2.45-6.243-4.811-10.958-2.765-5.283-6.735-5.078-10.013-5.964-6.143-1.77-9.108-9.479-5.83-14.205 1.79-2.686 4.883-4.287 7.521-6.527 3.74-3.582 2.076-4.596 1.749-8.934.13-3.447-1.718-6.949-.747-10.455.974-3.254 3.912-6.392 8.611-7.556 2.361-.896 9.27-4.239 10.745-5.965.731-.707 1.059-1.98 1.375-2.94 1.201-5.74-10.92-10.454-5.205-14.234 3.408-2.562 17.998-7.175 21.838-9.544 11.72-4.679 9.595-13.519 9.394-20.486-.08-2.092.862-4.153 2.505-5.727-.051-.071.031-.121.046-.182z" fill="#009C00"/><path d="M239.572 477.735c3.29-.372 11.254.382 12.577.628 1.323.246 2.489.236 3.213-1.263.303-.654.953-.934 1.673-.906 1.92-.12 6.192 2.073 6.605 2.172.55.133.976-.128 1.109-.678.132-.55.122-1.716.392-2.233.421-.844.848-1.105 1.758-.959 1.493.141 8.838 2.564 9.819 3.019.844.421 1.299-.56 1.91-1.286.289-.294.663-.64 1.023-.626 6.197.546 10.39 5.483 11.197 7.569.807 2.085 1.707 1.065 1.579.089-.11-.754-.362-2.124.135-4.186.496-2.062 2.808-4.415 4.192-5.027 1.436-.527 6.416 4.163 7.963 6.499.868 1.227 1.533 2.697 2.23 4.028 1.116 2.014 2.779 2.051 5.174 3.283 5.358 2.817 6.731 6.784 6.638 9.889-.113 2.882-1.565 7.406-2.934 9.767-1.217 2.034-1.879 4.784-1.859 7.117.044 3.138-1.66 6.291-3.991 8.421-1.839 1.594-1.976 1.561-3.944.068-.622-.44-.982-.454-1.508.219-.644.864-1.236 1.812-2.155 2.609-3.966 3.482-9.109 3.698-9.854 2.864-1.783-1.957.801-8.462.161-9.126-.641-.663-2.075 1.974-3.402 3.254-1.327 1.281-3.327 2.036-4.886 2.169-.583.006-1.29-.383-1.774-.79-.241-.204-.673-.526-.929-.369-1.265.422-5.835 1.577-9.23-.332-.569-.355-.882-.867-.887-1.45-.257-1.953.32-4.65.353-4.788.08-.635-.077-.891-.778-.696-.393.123-3.502 1.557-7.157 1.331-3.295-.211-7.625-3.072-8.322-4.404-.437-.905.415-3.536.58-4.224.081-.635-.128-.976-.816-1.142-2.01-.411-3.522-.775-6.296-2.243-7.066-3.883-11.478-10.328-11.554-11.219-.162-.839.677-1.001.553-1.394-.261-.427-6.863-6.235-15.118-10.914-.371-1.18 10.151-4.101 16.56-4.74z" fill="#5D3287"/><path d="M261.188 374.974c6.823 1.748 10.984 8.488 9.153 15.062-1.747 6.574-8.82 10.568-15.644 8.82-6.907-1.747-10.984-8.487-9.236-15.061 1.83-6.574 8.82-10.568 15.727-8.821z" fill="#224B00"/><path d="M255.613 380.55c4.161-2.83 9.903-1.998 12.898 1.997 2.913 3.911 1.997 9.569-2.08 12.398-4.077 2.83-9.986 1.914-12.898-1.997a8.763 8.763 0 012.08-12.398zm1.082 41.19c8.654-6.324 14.313-12.565 17.225-20.803 1.831-5.076 2.33-10.152.666-15.395-1.914-5.741-5.825-9.569-11.567-11.816-7.156-2.829-14.479-2.413-21.635-.166-12.898 4.077-22.717 11.816-28.459 23.799-2.58 5.408-3.578 11.15-1.914 17.058 2.081 7.24 7.157 11.65 14.562 13.564 7.739 1.997 15.312.915 22.551-1.997 3.578-1.498 6.907-3.412 8.571-4.244z" fill="#528A26"/><path d="M268.173 226.176c-5.616-2.166-8.709-8.199-6.955-13.513 1.832-5.293 7.875-7.805 13.512-5.716 5.616 2.166 8.709 8.2 6.955 13.513-1.831 5.293-7.895 7.882-13.512 5.716z" fill="#540C3C"/><path d="M274.529 224.657c-4.551 1.26-9.658-1.265-11.365-5.689-1.706-4.423.659-9.242 5.133-10.522 4.474-1.28 9.581 1.245 11.267 5.746 1.763 4.521-.484 9.206-5.035 10.465zm-18.345 19.128c2.881 7.134 7.489 13.987 14.68 19.218 5.26 3.806 11.009 6.09 17.411 5.326 4.694-.559 8.408-2.704 11.214-6.083 4.17-5.079 5.745-11.267 5.527-17.853-.406-12.667-5.349-23.823-15.419-32.801-3.985-3.629-8.665-6.205-14.052-7.07-7.124-1.165-12.791.869-17.059 6.005-4.108 4.848-5.467 10.845-5.516 17.194-.068 5.187 1.124 10.299 3.214 16.064z" fill="#9F477D"/></svg>